<?xml version="1.0" standalone="no"?>
<!DOCTYPE svg PUBLIC "-//W3C//DTD SVG 1.1//EN" "http://www.w3.org/Graphics/SVG/1.1/DTD/svg11.dtd">
<svg width="100%" height="100%" viewBox="0 0 1000 1000" version="1.1" xmlns="http://www.w3.org/2000/svg" xmlns:xlink="http://www.w3.org/1999/xlink" xml:space="preserve" style="fill-rule:evenodd;clip-rule:evenodd;stroke-linejoin:round;stroke-miterlimit:1.41421;">
    <g id="Page 26">
        <g id="Layer 1">
            <path d="M365.699,437.497C402.768,434.874 438.417,445.768 475.453,442.589C470.963,440.37 466.194,441.319 461.24,440.414C470.194,440.172 545.125,435.993 539.964,447.212C541.013,450.116 541.015,453.51 543.642,455.973C545.201,457.246 547.462,459.677 543.749,461.704C537.246,463.201 543.24,471.809 546.401,471.105C550.875,468.663 555.205,470.87 559.242,469.88C565.442,467.782 565.593,469.269 567.926,474.766C579.277,475.445 573.009,507.169 577.78,513.192C581.702,511.909 579.62,514.824 579.544,515.817C579.007,522.816 583.354,534 591.066,536.078C593.254,536.667 596.328,538.362 596.037,533.394C595.929,531.57 596.768,529.996 594.368,528.991C589.598,524.108 604.71,522.677 601.202,516.553C600.291,514.118 601.939,510.779 600.536,509.299C598.455,507.103 599.126,505.348 599.434,503.155C599.609,501.907 600.953,499.839 598.065,499.861C594.821,500.257 595.71,495.819 598.547,497.281C599.561,497.726 601.424,498.103 600.918,496.439C597.757,489.695 604.099,484.969 603.838,479.287C597.754,471.109 597.384,457.555 587.607,452.526C584.82,454.803 589.358,459.266 582.59,458.148C578.231,456.753 544.439,467.215 551.457,458.213C552.839,456.943 554.436,458.468 557.096,457.316C551.35,455.854 551.374,450.921 549.045,447.574C548.422,446.68 547.073,445.528 548.21,444.175C558.226,443.681 570.281,446.178 581.212,444.928C585.493,445.955 585.867,439.704 590.582,440.979C600.094,438.791 633.697,445.959 635.653,436.987C637.309,337.592 637.752,238.203 637.394,138.785C637.161,74.219 565.327,54.875 513.232,50.861C465.119,47.154 400.331,53.776 377.353,103.644C365.829,128.655 365.209,157.752 364.936,184.785C364.647,213.497 363.523,241.784 362.11,270.398C359.494,323.39 357.861,376.806 358.467,430.112C358.451,435.933 359.961,437.467 365.699,437.497" style="fill:rgb(26,26,26);fill-rule:nonzero;"/>
            <path d="M342.844,712.718C341.981,708.216 346.939,712.603 346.53,714.902C344.588,723.425 355.035,731.88 350.678,738.579C346.094,730.274 346.112,721.158 342.844,712.718M353.386,724.648C356.318,722.515 358.941,720.481 362.901,721.366C364.264,721.67 365.302,720.825 364.605,718.997C362.678,711.676 373.233,716.2 368.961,720.465C366.759,721.962 369.108,723.759 368.568,725.347C365.565,723.465 362.116,724.94 358.88,724.162C357.09,723.732 356.966,726.325 357.185,728.136C359.699,731.816 353.926,734.035 352.981,729.802C352.539,728.115 350.832,726.505 353.386,724.648M437.752,929.956C435.777,929.586 435.929,927.807 436.645,927.285C439.708,925.054 436.064,923.485 436.288,921.565C436.408,920.532 435.873,919.411 435.577,918.345C435.397,917.699 437.049,917.955 436.15,917.167C432.392,917.051 435.796,923.552 432.122,923.195C430.197,922.926 428.708,924.251 426.754,924.597C426.147,921.045 428.043,920.565 431.163,921.352C429.612,919.368 426.99,919.92 426.509,918.238C426.114,913.593 420.708,912.314 419.728,909.198C421.351,906.368 417.877,905.745 417.116,903.867C415.641,900.229 414.748,906.455 412.858,904.161C409.675,902.913 415.585,898.521 410.107,898.864C409.025,898.952 408.136,898.516 407.908,897.32C407.084,892.982 401.905,895.176 400.212,891.781C412.202,893.817 406.146,886.233 410.13,881.149C407.914,879.607 405.24,881.212 403.261,879.126C405.833,875.66 418.686,875.374 412.809,870.233C409.175,869.142 406.392,865.919 402.064,866.396C399.6,866.668 398.641,864.632 399.892,862.701C401.845,859.686 399.033,859.261 397.862,857.775C394.491,854.368 392.159,862.288 388.126,858.859C401.14,852.714 374.265,846.272 369.693,839.851C374.185,840.719 376.173,839.2 376.757,835.778C376.594,841.588 386.952,850.712 393.339,850.171C390.454,847.485 385.466,846.524 386.49,841.16C386.533,840.938 385.973,840.455 385.61,840.325C379.563,838.265 385.119,834.421 386.472,831.081C386.987,830.048 387.004,828.774 385.394,829.497C380.796,831.562 385.908,824.955 381.698,824.996C378.424,825.788 381.109,831.129 375.286,831.544C370.633,831.372 376.034,826.739 376.885,825.182C377.724,824.944 378.677,824.904 378.05,823.615C376.421,821.288 372.809,823.702 370.499,822.128C368.397,821.37 366.764,817.488 368.153,816.903C374.076,814.056 365.047,812.43 365.164,808.711C363.251,809.309 361.028,812.118 359.162,810.092C357.044,807.341 361.035,806.787 361.036,804.263C341.929,802.904 359.942,800.912 354.024,793.615C353.282,791.924 350.715,794.079 349.3,792.129C350.463,791.173 351.341,789.668 352.979,789.504C353.957,789.406 355.373,790.899 355.991,789.627C356.597,785.522 350.479,782.613 353.467,778.813C356.393,773.709 349.066,773.405 350.915,770.377C351.838,769.379 353.878,768.94 354.331,769.834C356.215,773.541 359.611,771.589 362.307,772.435C359.428,771.161 359.437,767.239 356.246,766.284C346.763,765.495 352.597,760.29 358.082,760.176C362.639,760.815 358.443,752.703 355.529,753.233C349.819,752.813 354.526,742.122 355.002,737.817C359.551,744.979 364.834,734.183 369.68,739.729C372.433,734.49 368.906,730.159 368.655,725.541C373.467,729.969 372.741,715.078 370.585,714.408C366.975,713.353 365.375,704.88 361.556,710.606C359.961,708.107 361.857,704.697 358.366,702.653C360.429,702.634 361.541,704.539 362.933,703.029C364.136,701.202 362.257,697.612 359.937,698.953C358.176,699.589 357.943,698.181 357.229,697.11C350.72,689.935 351.335,690.107 359.84,688.095C360.256,681.795 366.785,684.444 371.047,684.01C374.134,684.103 377.667,681.065 380.297,685.26C380.743,685.064 385.505,683.41 384.15,681.309C382.013,678.961 379.171,682.494 376.387,679.397C378.643,678.948 379.961,677.98 380.956,676.553C381.217,676.179 381.081,675.058 382.302,675.847C386.784,678.606 381.514,665.292 386.92,662.976C387.967,662.09 386.262,660.811 385.181,661.344C379.19,663.743 380.035,655.442 375.932,653.357C373.746,656.146 372.626,658.185 371.492,661.744C368.255,658.047 374.301,654.048 369.887,652.404C366.144,652.242 368.477,647.769 371.256,649.584C376.514,651.867 380.354,646.529 385.002,644.898C383.337,641.434 376.32,648.762 375.321,646.771C374.996,641.746 370.02,645.242 370.065,642.395C371.036,640.643 370.968,638.072 373.442,637.413C374.543,638.789 371.888,641.152 374.67,641.363C376.584,641.508 377.681,642.306 378.79,643.574C382.016,644.81 382.265,637.048 386.253,636.491C385.307,630.436 390.312,625.996 391.957,621.082C390.06,617.645 391.615,615.813 395.558,614.638C392.19,614.248 388.166,610.705 390.837,608.361C394.532,606.549 397.198,600.196 402.86,604.708C402.957,604.785 403.463,604.348 403.774,604.152C402.503,601.671 398.279,601.585 398.317,599.782C398.391,596.331 393.976,595.503 394.503,594.681C396.436,592.416 397.292,589.592 397.554,586.764C394.734,583.08 399.37,580.919 402.278,585.116C400.762,581.352 404.381,578.126 400.977,575.424C400.908,575.369 401.782,573.579 402.528,573.169C404.586,572.236 403.574,576.739 405.781,576.009C409.136,575.078 408.016,577.481 407.72,578.759C406.045,585.992 412.812,588.886 415.151,594.04C416.791,589.814 409.112,588.154 411.319,584.373C413.559,581.67 416.916,584.037 419.687,583.926C418.749,575.015 423.304,567.074 422.153,558.401C420.575,553.223 426.097,556.229 426.905,553.249C423.589,551.787 420.238,550.084 422.332,544.987C423.676,545.425 422.352,547.224 423.739,547.706C425.487,525.369 424.955,502.451 428.245,480.27C428.232,474.702 435.253,479.807 432.579,483.246C430.886,485.753 430.62,497.125 433.104,498.481C436.502,500.275 435.389,502.426 433.229,504.06C429.802,506.534 432.599,510.795 431.302,514.248C428.926,523.694 438.651,519.203 436.426,525.048C434.602,528.91 433.399,523.291 431.037,525.188C434.474,528.26 428.466,535.227 433.155,536.818C437.408,536.583 431.962,526.214 439.6,527.108C443.576,526.723 439.062,523.152 438.337,521.525C445.174,521.87 439.838,515.153 443.74,513.027C446.875,521.934 451.171,518.289 456.097,520.247C457.675,521.621 458.926,521.714 460.346,519.953C461.694,518.281 462.818,519.181 463.546,520.693C464.003,521.643 461.636,523.529 463.938,523.576C465.395,523.84 465.548,516.373 462.923,516.745C457.307,514.422 460.01,506.226 453.836,503.585C449.593,501.329 451.441,492.696 456.694,496.026C464.501,497.622 460.04,489.321 464.308,487.838C468.381,487.119 466.361,492.395 469.188,493.408C467.346,487.188 473.385,481.256 468.244,475.693C467.587,481.938 467.587,481.938 464.623,482.773C466.662,478.201 464.864,473.587 464.662,468.758C471.605,472.947 472.903,479.929 474.932,486.454C479.582,484.46 475.272,477.914 480.745,476.32C476.673,477.232 468.825,471.899 473.414,468.62C477.111,470.089 477.503,466.03 479.876,464.846C475.153,464.883 471.208,460.99 466.275,463.007C465.264,463.42 463.649,464.154 462.793,462.754C461.696,460.226 466.991,458.927 463.446,456.493C461.699,458.525 458.324,462.942 455.613,461.492C454.754,460.286 455.856,459.717 456.752,459.318C457.365,459.046 458.194,459.134 457.986,457.797C450.662,458.268 455.755,451.927 444.154,450.692C438.565,451.08 438.976,461.403 431.259,456.963C424.719,454.778 416.8,455.937 412.204,450.003C392.301,444.187 388.32,526.659 387.938,542.089C380.38,585.393 357.139,630.714 335.901,663.353C295.144,736.808 297.899,847.904 371.166,899.946C372.936,900.403 371.615,904.126 374.08,905.716C384.066,910.642 391.321,926.436 403.46,924.07C397.294,929.327 421.773,936.13 425.544,938.965C434.218,945.731 435.196,935.307 442.541,937.942C438.639,935.653 440.525,932.112 443.84,935.04C446.079,938.091 448.444,935.704 450.898,935.534C446.161,934.425 442.342,931.36 437.752,929.956" style="fill:rgb(26,26,26);fill-rule:nonzero;"/>
            <path d="M365.117,808.576C365.127,808.625 365.152,808.663 365.164,808.71C365.18,808.702 365.195,808.692 365.211,808.684L365.117,808.576Z" style="fill:rgb(26,26,26);fill-rule:nonzero;"/>
            <path d="M657.154,805.778C651.279,808.686 648.993,802.085 645.549,798.806C642.727,796.836 645.152,793.513 643.825,789.838C647.448,795.114 659.138,785.825 655.368,793.539C656.38,796.844 651.843,801.295 657.521,803.667C658.933,804.256 658.239,805.32 657.154,805.778M591.561,900.18C589.612,900.617 586.782,898.997 587.589,896.852C591.515,896.534 586.849,887.754 593.391,890.648C600.152,889.514 595.591,900.237 591.561,900.18M689.705,778.162C695.087,724.309 669.576,676.37 643.339,632.475C639.36,634.08 639.771,632.381 641.204,629.73C638.988,621.076 630.342,614.401 628.16,606.271C629.105,601.277 623.131,597.872 619.879,601.625C618.512,602.655 617.309,606.224 618.533,606.865C622.718,609.056 623.092,613.552 625.595,616.664C627.079,619.333 630.894,622.064 630.621,625.151C630.434,625.412 629.703,625.646 629.55,625.513C625.648,622.117 625.863,626.787 624.126,628.198C629.541,626.848 629.724,633.626 624.881,633.881C622.207,635.947 621.043,629.725 618.479,632.529C616.756,634.351 619.272,635.034 620.05,635.565C621.999,636.893 622.738,640.06 625.926,639.619C626.133,639.59 626.824,640.711 626.689,640.935C625.474,642.953 629.17,645.024 626.511,647.122C626.781,651.627 635.1,644.775 631.048,641.867C627.161,640.132 629.586,639.872 631.461,639.295C641.555,634.687 633.514,641.424 638.62,644.389C641.142,645.752 644.242,652.78 638.989,651.893C637.282,651.829 637.569,650.64 637.612,649.439C637.97,647.019 635.304,645.065 633.822,647.689C630.793,651.51 644.594,664.992 630.776,658.459C628.811,657.369 627.655,660.945 629.709,661.178C632.401,661.247 633.646,663.827 635.963,664.514C644.363,666.358 631.143,682.743 641.455,681.69C642.115,681.49 643.382,681.265 643.234,681.865C642.925,685.877 649.352,687.696 645.946,691.93C644.722,693.365 643.805,691.599 642.912,690.848C639.273,688.799 638.916,697.281 639.548,699.6C641.103,703.826 638.05,707.768 639.049,712.025C639.436,713.676 637.705,712.526 636.884,712.528C634.886,712.511 635.242,715.951 637.177,715.125C638.608,715.154 640.807,712.818 641.647,714.685C641.875,715.467 641.954,716.244 640.604,716.478C638.96,716.762 638.331,718.301 637.714,719.699C640.939,719.604 642.082,723.967 646.188,722.485C647.289,722.233 648.94,723.829 648.758,725.368C647.876,728.357 643.502,725.567 641.173,725.836C634.177,721.077 641.899,753.881 643.777,757.685C641.408,757.925 639.011,757.755 638.108,760.335C639.252,761.336 640.534,759.153 641.443,760.418C642.243,762.029 638.196,761.897 640.371,763.044C645.087,767.064 642.38,774.567 642.855,779.999C642.155,799.433 645.282,805.262 624.586,803.7C635.231,812.026 643.041,795.227 640.947,817.347C640.244,825.195 650.947,812.43 648.407,822.156C649.249,823.647 651.885,824.917 651.609,827.346C642.561,821.428 634.027,828.947 634.107,837.845C636.122,839.296 634.75,841.075 635.188,843.364C630.969,837.845 627.618,836.894 621.535,839.231C622.997,839.988 624.463,841.08 624.352,842.349C622.942,851.245 631.557,836.516 633.556,848.333C633.422,849.912 631.467,848.94 630.279,848.984C626.49,849.635 632.662,852.467 628.765,856.166C627.342,858.906 623.114,856.81 626.182,854.971C626.684,853.223 625.97,847.283 623.426,849.208C622.449,850.955 618.882,852.115 619.768,853.373C622.651,857.473 621.956,860.156 618.055,862.713C617.481,864.618 615.454,870.658 612.594,868.161C611.757,866.946 612.715,866.085 614.026,865.764C616.757,865.366 615.892,860.681 613.352,860.739C609.157,860.895 610.368,867.638 607.598,869.699C605.28,872.166 602.68,869.437 600.211,868.835C598.48,868.04 597.488,870.601 599.328,871.065C602.019,871.868 602.559,874.818 605.477,876.234C594.345,876.719 601.996,884.123 598.419,886.075C596.536,886.672 592.708,884.245 593.57,889.162C588.339,889.548 585.104,890.688 585.769,896.426C586.794,901.187 583.156,901.262 581.776,897.234C580.08,895.127 583.862,890.765 581.401,889.933C577.984,889.195 579.89,897.238 576.117,897.098C571.503,897.199 571.462,897.454 573.72,901.556C578.007,896.089 585.959,900.789 580.958,906.252C579.128,907.512 576.382,906.03 574.44,907.524C571.529,909.763 570.833,905.864 568.81,905.5C566.468,908.695 569.678,914.167 565.24,915.647C560.416,914.673 561.199,919.566 565.199,920.274C565.917,919.349 563.935,917.793 565.338,917.791C579.189,924.276 553.733,923.543 549.656,925.887C546.341,922.962 541.315,924.825 537.84,921.739C539.032,922.709 536.362,925.92 540.136,925.151C540.971,924.981 541.863,924.514 542.281,925.607C542.834,927.651 539.934,928.068 539.879,930.108C538.888,933.07 536.081,931.112 534.216,931.854C533.058,927.583 530.327,930.225 528.796,931.056C524.502,933.416 522.383,927.436 518.093,931.654C515.091,933.022 518.809,934.425 518.134,936.083C512.441,938.315 518.127,939.147 518.677,940.591C515.359,938.969 513.261,943.54 510.201,937.585C512.141,947.498 500.044,940.967 505.552,949.486C505.493,946.329 506.124,944.281 509.866,946.409C512.736,947.584 515.471,944.58 517.928,947.789C521.133,951.316 522.604,946.475 521.737,943.266C526.851,952.123 537.454,942.007 545.062,944.745C547.192,945.779 547.757,942.099 549.586,942.407C552.575,943.669 569.494,941.85 564.812,936.713C564.109,935.704 564.487,933.88 565.883,933.477C568.851,932.629 566.811,940.264 569.975,937.934C574.243,933.637 594.736,932.54 586.851,924.402C597.332,928.233 604.554,922.038 609.419,915.031C615.49,917.597 617.4,911.847 621.891,909.476C619.599,908.724 618.271,910.985 617.144,909.408C616.588,908.63 617.505,907.936 618.358,907.581C628.093,900.49 636.32,891.658 646.791,884.71C653.531,875.316 677.559,851.781 670.215,840.341C676.128,844.348 681.914,830.634 677.081,828.922C675.865,828.369 673.996,828.375 675.615,825.87C677.578,821.502 679.65,828.371 681.289,824.974C686.869,810.139 690.175,794.075 689.705,778.162" style="fill:rgb(26,26,26);fill-rule:nonzero;"/>
            <path d="M545.899,522.954C549.248,517.787 537.787,509.685 546.854,505.417C541.789,507.795 535.123,507.155 538.08,499.935C538.217,495.445 534.455,494.249 538.933,489.964C540.092,488.332 541.191,491.545 543.586,491.089C539.521,486.55 537.62,481.138 533.187,477.101C528.901,473.199 531.313,466.089 528.048,459.965C528.859,470.238 527.614,480.878 531.74,488.754C534.156,489.727 533.446,485.295 535.915,486.019C537.809,490.61 530.592,493.846 533.609,498.449C537.779,505.417 537.026,521.375 545.899,522.954" style="fill:rgb(26,26,26);fill-rule:nonzero;"/>
            <path d="M502.069,522.854C495.517,521.795 490.406,516.986 484.609,515.078C481.588,515.501 479.274,514.765 478.265,511.575C477.973,509.908 475.178,510.006 475.818,511.909C476.101,513.074 475.064,513.658 474.689,514.533C470.35,524.683 490.777,513.355 483.2,520.561C491.857,521.558 489.535,543.056 499.363,525.323C500.415,525.761 499.951,527.073 500.991,528.214C500.416,525.748 504.625,524.176 502.069,522.854" style="fill:rgb(26,26,26);fill-rule:nonzero;"/>
            <path d="M471.467,553.927C472.023,553.522 472.222,552.541 471.4,552.131C468.72,550.795 468.124,548.236 467.085,545.747C464.847,540.381 464.684,540.449 469.826,539.569C467.107,534.828 466.692,534.696 461.662,536.418C455.397,536.612 465.751,523.026 449.488,531.32C448.629,529.051 448.515,526.813 448.954,524.014C443.901,528.865 445.296,535.894 452.864,534.428C454.357,535.387 465.65,541.129 463.368,543.948C461.882,545.92 463.056,546.766 464.526,547.964C471.97,553.948 464.504,557.64 463.89,563.77C467.553,561.031 468.085,556.393 471.467,553.927" style="fill:rgb(26,26,26);fill-rule:nonzero;"/>
            <path d="M485.666,944.216C488.85,942.902 491.464,942.26 486.627,939.933C485.758,942.237 483.949,940.041 482.688,940.745C479.245,941.263 480.727,946.792 476.673,943.609C473.005,940.944 465.271,943.249 466.394,948.107C466.74,949.18 467.617,949.645 468.769,949.192C476.28,946.992 484.241,953.345 491.094,947.335C489.74,945.299 487.322,945.734 485.666,944.216" style="fill:rgb(26,26,26);fill-rule:nonzero;"/>
            <path d="M535.737,518.336C536.817,518.492 537.006,516.944 536.381,516.494C532.099,513.416 533.198,508.571 532.22,504.354C527.856,503.908 524.35,509.63 529.889,510.734C536.705,520.776 516.379,518.278 510.995,516.832C511.538,522.825 523.743,522.83 528.809,520.591C531.423,520.647 529.068,524.477 531.772,525.022C534.325,522.705 529.962,517.465 535.737,518.336" style="fill:rgb(26,26,26);fill-rule:nonzero;"/>
            <path d="M637.604,719.716C637.628,719.736 637.661,719.747 637.681,719.773C637.691,719.749 637.703,719.724 637.714,719.699C637.686,719.7 637.653,719.706 637.626,719.705C637.618,719.711 637.612,719.711 637.604,719.716" style="fill:rgb(26,26,26);fill-rule:nonzero;"/>
            <path d="M630.453,714.88C628.359,711.358 622.15,696.476 618.428,697.73C616.138,698.867 619.956,702.23 620.9,703.441C627.068,709.598 615.655,711.86 619.959,717.121C620.63,718.901 621.687,718.135 622.871,717.174C628.448,712.465 631.911,723.068 637.604,719.715C635.317,717.865 631.32,717.838 630.453,714.88" style="fill:rgb(26,26,26);fill-rule:nonzero;"/>
            <path d="M614.286,585.521C605.967,575.557 613.018,600.833 616.249,601.764C626.281,596.853 620.608,590.209 614.286,585.521" style="fill:rgb(26,26,26);fill-rule:nonzero;"/>
            <path d="M536.793,462.733C534.17,457.728 536.694,450.443 528.708,449.23C524.481,445.966 526.88,438.594 518.282,442.859C520.009,444.698 524.122,442.762 524.755,444.942C523.667,449.107 527.222,451.563 528.331,455.352C531.272,448.133 534.163,457.6 534.714,460.743C535.504,465.571 530.316,471.26 534.868,475.125C537.826,476.105 538.168,472.611 541.718,472.854C529.429,469.574 540.394,468.782 536.793,462.733" style="fill:rgb(26,26,26);fill-rule:nonzero;"/>
            <path d="M451.425,544.391C448.17,542.823 440.721,545.697 438.591,548.869C437.312,550.774 438.401,554.138 436.038,554.709C432.35,555.702 433.464,548.6 429.934,549.423C428.433,559.54 432.309,556.099 439.362,559.319C436.901,547.526 456.66,548.068 451.425,544.391" style="fill:rgb(26,26,26);fill-rule:nonzero;"/>
            <path d="M400.504,594.369C405.952,604.907 407.752,593.979 413.658,600.39C409.989,595.448 409.432,588.887 404.245,584.465C403.321,585.951 403.797,587.562 402.264,588.111C398.618,590.585 407.373,592.047 400.504,594.369" style="fill:rgb(26,26,26);fill-rule:nonzero;"/>
            <path d="M567.722,474.866C567.81,474.886 567.894,474.88 567.982,474.902C567.964,474.857 567.945,474.812 567.926,474.767C567.907,474.763 567.885,474.76 567.866,474.757C567.822,474.797 567.767,474.827 567.722,474.866" style="fill:rgb(26,26,26);fill-rule:nonzero;"/>
            <path d="M546.5,479.287C540.924,479.814 548.913,488.429 551.112,482.74C555.329,475.771 555.558,482.219 560.804,482.618C560.261,477.501 565.097,477.165 567.722,474.865C560.009,473.097 553.771,478.65 546.5,479.287" style="fill:rgb(26,26,26);fill-rule:nonzero;"/>
            <path d="M560.871,482.704C560.882,482.673 560.898,482.653 560.91,482.622C560.875,482.62 560.838,482.62 560.803,482.618C560.807,482.657 560.797,482.683 560.802,482.722C560.827,482.714 560.847,482.712 560.871,482.704" style="fill:rgb(26,26,26);fill-rule:nonzero;"/>
            <path d="M557.036,484.903C549.77,483.96 553.256,490.863 558.33,490.031C567.188,489.472 563.46,491.853 566.542,497.364C568.052,492.815 567.725,480.569 560.871,482.704C560.267,484.589 558.965,485.37 557.036,484.903" style="fill:rgb(26,26,26);fill-rule:nonzero;"/>
            <path d="M469.216,493.578C469.236,493.54 469.24,493.49 469.267,493.456C469.235,493.443 469.219,493.422 469.188,493.408C469.195,493.465 469.191,493.525 469.216,493.578" style="fill:rgb(26,26,26);fill-rule:nonzero;"/>
            <path d="M466.18,499.427C462.591,499.946 458.88,499.602 455.943,502.32C465.729,508.864 476.066,506.884 469.217,493.578C468.228,495.596 469.236,498.985 466.18,499.427" style="fill:rgb(26,26,26);fill-rule:nonzero;"/>
            <path d="M360.038,688.113C359.998,688.091 359.967,688.062 359.926,688.04C359.901,688.064 359.867,688.075 359.841,688.095C359.84,688.102 359.837,688.106 359.836,688.114C359.912,688.113 359.964,688.114 360.038,688.113" style="fill:rgb(26,26,26);fill-rule:nonzero;"/>
            <path d="M361.676,690.69C361.338,699.91 370.702,690.28 369.813,696.923C369.494,700.189 370.961,700.007 373.368,699.146C376.98,697.854 375.776,695.156 374.829,693.277C373.052,687.379 367.582,691.645 363.363,692.203C364.25,688.254 364.132,688.068 360.038,688.113C361.033,688.669 361.657,689.425 361.676,690.69" style="fill:rgb(26,26,26);fill-rule:nonzero;"/>
            <path d="M368.903,807.948C370.337,806.038 373.105,807.915 371.493,809.86C370.002,812.315 373.487,813.721 372.738,816.116C375.004,818.11 377.55,809.2 376.284,807.7C372.985,803.223 365.633,800.948 365.224,808.622C366.617,809.399 367.781,809.092 368.903,807.948" style="fill:rgb(26,26,26);fill-rule:nonzero;"/>
            <path d="M365.119,808.579C365.117,808.577 365.211,808.684 365.211,808.684C365.215,808.664 365.22,808.642 365.224,808.622C365.188,808.602 365.155,808.601 365.119,808.579" style="fill:rgb(26,26,26);fill-rule:nonzero;"/>
        </g>
    </g>
</svg>
